<?xml version="1.0" encoding="utf-8"?>
<!-- Generator: Adobe Illustrator 19.0.0, SVG Export Plug-In . SVG Version: 6.00 Build 0)  -->
<svg version="1.1" id="Logo" xmlns="http://www.w3.org/2000/svg" xmlns:xlink="http://www.w3.org/1999/xlink" x="0px" y="0px"
	 viewBox="-570 366 444 172" style="enable-background:new -570 366 444 172;" xml:space="preserve">
<style type="text/css">
	.st0{fill:#FFFFFF;}
	.st1{fill:#8DC63F;}
</style>
<g>
	<path class="st0" d="M-508.9,379.6v9.4h-19.6v52.6H-539V389h-19.6v-9.4H-508.9z"/>
	<path class="st0" d="M-466.6,421.9h-35.6c1.6,7.3,7.2,11.8,14.6,11.8c5.1,0,9.8-2,13.3-5.5l5.4,5.8c-4.6,5-11.3,8-19.5,8
		c-14.5,0-24.1-9.6-24.1-23.8c0-14.3,9.8-23.9,23.8-24C-472.1,394.1-465.4,404.9-466.6,421.9z M-475.5,414.5
		c-0.3-7.6-5.4-12.2-13.1-12.2c-7.4,0-12.7,4.7-13.8,12.2H-475.5z"/>
	<path class="st0" d="M-437.5,403.1c-8.1,0-14,6.1-14,15s5.8,15,14,15c5.9,0,10.7-2,13.9-5.7l5.7,5.7c-4.3,5.6-11.1,8.8-20,8.8
		c-14,0-23.7-9.6-23.7-23.8c0-14.3,9.7-24,23.7-24c8.5,0,15.1,2.7,19.5,7.7l-5.6,6.5C-427.3,405-431.8,403-437.5,403.1z"/>
	<path class="st0" d="M-363,412.3v29.3h-10.2v-26.5c0-7.1-4.3-11.4-11.3-11.4c-8.4,0.1-13.5,6.4-13.5,14.7v23.2h-10.2v-65.7h10.2
		v27.8c3.4-6.6,9.4-9.6,17.4-9.6C-369.5,394.1-363,401-363,412.3z"/>
	<path class="st0" d="M-330.9,403.1c-8.1,0-14,6.1-14,15s5.8,15,14,15c5.9,0,10.7-2,13.9-5.7l5.7,5.7c-4.3,5.6-11.1,8.8-20,8.8
		c-14,0-23.7-9.6-23.7-23.8c0-14.3,9.7-24,23.7-24c8.5,0,15.1,2.7,19.5,7.7l-5.6,6.5C-320.7,405-325.2,403-330.9,403.1z"/>
	<path class="st0" d="M-298.7,459.2c-4.3,0-7.6-1.2-10.9-4l4.3-7.9c2.2,1.6,4,2.3,6.1,2.3c3.1,0,5.6-1.7,7.2-5.2l1.6-3.5l-19.5-46.4
		h10.5l14.1,35.7l13.1-35.7h10.2l-21.4,53.5C-286.3,455.5-291.6,459.2-298.7,459.2z"/>
	<path class="st0" d="M-238.2,403.1c-8.1,0-14,6.1-14,15s5.8,15,14,15c5.9,0,10.7-2,13.9-5.7l5.7,5.7c-4.3,5.6-11.1,8.8-20,8.8
		c-14,0-23.7-9.6-23.7-23.8c0-14.3,9.7-24,23.7-24c8.5,0,15.1,2.7,19.5,7.7l-5.6,6.5C-228,405-232.5,403-238.2,403.1z"/>
	<path class="st0" d="M-198.6,375.9v65.7h-10.2v-65.7L-198.6,375.9L-198.6,375.9z"/>
	<path class="st0" d="M-143,421.9h-35.6c1.6,7.3,7.2,11.8,14.6,11.8c5.1,0,9.8-2,13.3-5.5l5.4,5.8c-4.6,5-11.3,8-19.5,8
		c-14.5,0-24.1-9.6-24.1-23.8c0-14.3,9.8-23.9,23.8-24C-148.5,394.1-141.7,404.9-143,421.9z M-151.8,414.5
		c-0.4-7.6-5.4-12.2-13.1-12.2c-7.4,0-12.7,4.7-13.8,12.2H-151.8z"/>
	<path class="st1" d="M-531.7,472.5c-6.1,0-10.1,2.3-10.1,6.5c0,13.5,33.5,6.3,33.4,28.6c0,11.1-9.7,17.9-23.4,17.9
		c-9.7,0-18.9-4-25.3-9.8l4.5-9c6.4,5.8,14.3,9,21,9c7.3,0,11.6-2.7,11.6-7.5c0-13.8-33.5-6.1-33.5-28.1c0-10.6,9.1-17.3,22.6-17.3
		c8,0,15.9,2.6,21.7,6.4l-4.3,9.2C-520.2,474.1-527,472.5-531.7,472.5z"/>
	<path class="st1" d="M-452.9,501.4c0,14.3-10,24-24.5,24c-14.6,0-24.6-9.7-24.6-24c0-14.2,10-23.8,24.6-23.8
		C-462.9,477.6-452.9,487.3-452.9,501.4z M-491.8,501.6c0,9.1,5.9,15.3,14.4,15.3c8.4,0,14.3-6.2,14.3-15.3c0-9-5.9-15.3-14.3-15.3
		C-485.9,486.3-491.8,492.6-491.8,501.6z"/>
	<path class="st1" d="M-432.5,459.4V525h-10.2v-65.7H-432.5z"/>
	<path class="st1" d="M-375,478V525h-10.2v-9.2c-3.2,6.5-9.1,9.5-16.8,9.6c-10.8,0-17.3-6.9-17.3-18.1V478h10.2v26.5
		c0,7.1,4.2,11.4,11,11.4c8.1-0.2,12.9-6.5,12.9-14.7V478L-375,478L-375,478z"/>
	<path class="st1" d="M-334.1,522c-3.7,2.2-7.6,3.4-11.6,3.4c-7.1,0-13.2-4.1-13.2-13.7v-24.4h-6.6v-7.6h6.6v-12.9h10.1v12.9h13.9
		v7.6h-13.9v22.6c0,4.9,1.9,6.4,5,6.4c2.1,0,4.3-0.7,7.1-2L-334.1,522z"/>
	<path class="st1" d="M-314.6,464.5c0,3.5-2.6,6-5.9,6s-5.9-2.6-5.9-6c0-3.5,2.6-6.1,5.9-6.1C-317.1,458.4-314.6,461-314.6,464.5z
		 M-315.5,478V525h-10.1V478H-315.5z"/>
	<path class="st1" d="M-256.5,501.4c0,14.3-10,24-24.5,24c-14.6,0-24.6-9.7-24.6-24c0-14.2,10-23.8,24.6-23.8
		C-266.5,477.6-256.5,487.3-256.5,501.4z M-295.5,501.6c0,9.1,5.9,15.3,14.4,15.3c8.4,0,14.3-6.2,14.3-15.3c0-9-5.9-15.3-14.3-15.3
		C-289.5,486.3-295.5,492.6-295.5,501.6z"/>
	<path class="st1" d="M-201.6,495.7V525h-10.2v-26.5c0-7.1-4.3-11.4-11.3-11.4c-7.8,0.1-12.7,5.5-13.4,12.8v25h-10.2v-47.1h10.2v9
		c3.4-6.5,9.4-9.4,17.4-9.4C-208.2,477.6-201.6,484.5-201.6,495.7z"/>
	<path class="st1" d="M-175.5,485.6c-4,0-6.9,1.3-6.9,4.7c0,8.7,25,4,25,21.1c0,9.6-8.6,14-18,14c-6.9,0-14.3-2.3-18.9-6.5l3.6-7.3
		c4.1,3.6,10.6,5.8,15.8,5.8c4.3,0,7.7-1.5,7.7-5c0-9.6-24.8-4.3-24.7-21.2c0-9.6,8.3-13.6,17.4-13.6c5.9,0,12.2,1.8,16.5,4.8
		l-3.7,7.5C-166.1,487.3-171.4,485.6-175.5,485.6z"/>
	<path class="st1" d="M-135.4,518.3c0,4.6-3.2,7.8-7.4,7.8s-7.4-3.3-7.4-7.8c0-4.4,3.2-7.6,7.4-7.6
		C-138.6,510.7-135.4,513.8-135.4,518.3z"/>
</g>
</svg>
